<svg  viewBox="0 0 22 25" fill="none" width="22" height="25" xmlns="http://www.w3.org/2000/svg" >
            <path fill-rule="evenodd" clip-rule="evenodd" d="M8.48584 5.81313C8.27201 4.15256 9.4239 0.539339 13.4774 0C13.9464 2.78179 11.6001 5.97873 8.48584 5.81313Z" fill="white"></path>
            <path fill-rule="evenodd" clip-rule="evenodd" d="M20.7747 8.39829C19.4527 7.15287 18.3008 5.94884 15.8694 5.82349C13.9071 5.7407 13.0115 6.90332 11.1768 6.94472C9.47077 6.98612 9.59836 5.6579 6.0576 6.03164C2.98587 6.36283 0.298109 9.35277 0.511949 13.5467C0.725788 18.073 3.96764 24.3427 6.99566 24.3427C9.12815 24.3013 9.64089 23.3043 11.3894 23.3043C13.5644 23.3043 14.0772 24.5497 15.7832 24.3002C18.7261 23.885 21.499 19.3587 21.499 17.9063C19.878 17.076 18.2571 15.6638 18.0433 13.2972C17.8731 10.9305 19.3653 9.43557 20.7736 8.39714L20.7747 8.39829Z" fill="white"></path>
        </svg>