<svg  viewBox="0 0 22 22" fill="none" width="22" height="22"  xmlns="http://www.w3.org/2000/svg">
            <path fill-rule="evenodd" clip-rule="evenodd" d="M21.5593 11.25C21.5593 10.4697 21.4888 9.72048 21.3593 9.00027H10.9998V13.2552H16.9199C16.665 14.6303 15.8899 15.7951 14.7251 16.5754V19.3349H18.2805C20.3603 17.4199 21.5603 14.6002 21.5603 11.25H21.5593Z" fill="#4285F4"></path>
            <path fill-rule="evenodd" clip-rule="evenodd" d="M10.9993 22.0002C13.9692 22.0002 16.4594 21.0147 18.2791 19.3349L14.7236 16.5754C13.7382 17.2355 12.4791 17.6251 10.9983 17.6251C8.133 17.6251 5.70815 15.6904 4.84287 13.0904H1.16931V15.9401C2.97966 19.5349 6.69881 22.0002 10.9993 22.0002Z" fill="#34A853"></path>
            <path fill-rule="evenodd" clip-rule="evenodd" d="M4.84453 13.0895C4.62484 12.4294 4.49946 11.7248 4.49946 10.9994C4.49946 10.274 4.62484 9.56933 4.84453 8.90923V6.05951H1.16994C0.424868 7.54448 0 9.22426 0 10.9994C0 12.7745 0.424868 14.4543 1.16994 15.9392L4.84453 13.0895Z" fill="#FBBC05"></path>
            <path fill-rule="evenodd" clip-rule="evenodd" d="M10.9993 4.37511C12.6138 4.37511 14.0646 4.93054 15.2045 6.01966L18.3599 2.86423C16.4542 1.09015 13.9641 0 10.9993 0C6.69881 0 2.97966 2.46527 1.16931 6.06007L4.8439 8.90979C5.70918 6.30981 8.13404 4.37511 10.9993 4.37511Z" fill="#EA4335"></path>
</svg>